<?xml version="1.0" standalone="no"?>
<!DOCTYPE svg PUBLIC "-//W3C//DTD SVG 20010904//EN"
 "http://www.w3.org/TR/2001/REC-SVG-20010904/DTD/svg10.dtd">
<svg version="1.0" xmlns="http://www.w3.org/2000/svg"
 width="226.000000pt" height="226.000000pt" viewBox="0 0 226.000000 226.000000"
 preserveAspectRatio="xMidYMid meet">
<metadata>
Created by potrace 1.14, written by Peter Selinger 2001-2017
</metadata>
<g transform="translate(0.000000,226.000000) scale(0.100000,-0.100000)"
fill="#000000" stroke="none">
<path d="M1933 2145 c-3 -9 -3 -18 -1 -21 3 -3 8 4 11 16 6 23 -1 27 -10 5z"/>
<path d="M1232 2040 c-13 -36 -28 -78 -33 -95 -6 -16 -12 -40 -14 -53 -2 -13
-8 -29 -15 -37 -8 -10 -8 -14 2 -17 8 -3 0 -23 -25 -60 -20 -31 -37 -62 -37
-68 0 -6 -14 -31 -30 -56 -17 -24 -28 -44 -25 -44 3 0 -12 -27 -35 -59 -22
-33 -40 -63 -40 -66 0 -9 -73 -105 -111 -145 -18 -19 -47 -58 -65 -86 -47 -74
-93 -119 -150 -148 -63 -32 -118 -90 -135 -141 -7 -22 -12 -44 -11 -49 2 -4
-14 -27 -35 -50 -111 -120 -293 -431 -293 -501 0 -38 21 -58 81 -76 44 -13
564 -13 689 1 168 18 264 30 302 39 59 14 155 89 184 143 8 16 19 27 25 25 6
-1 13 5 14 13 4 22 35 77 36 65 2 -21 17 42 18 77 1 23 -6 45 -19 60 -57 66
-70 84 -70 95 0 6 -9 15 -20 18 -11 4 -17 11 -14 17 4 6 -1 17 -11 25 -11 7
-15 13 -11 13 4 0 -1 15 -13 33 -11 18 -19 39 -17 47 6 31 19 50 29 43 7 -4 8
0 3 13 -4 10 -9 30 -10 44 -2 14 -1 17 1 8 2 -9 10 -15 18 -12 7 3 11 14 8 24
-3 11 4 31 16 46 12 15 21 30 21 35 0 16 66 79 103 98 38 19 38 19 31 -1 -5
-16 3 -13 46 16 29 20 57 36 63 36 6 0 23 12 38 26 l26 25 -4 -28 c-3 -26 -3
-26 9 -9 7 11 27 36 45 55 24 28 30 43 27 66 -4 25 -3 26 5 10 l10 -20 0 20
c1 11 8 31 16 45 45 79 48 94 49 217 1 75 -2 116 -7 107 -5 -9 -7 -49 -5 -90
2 -41 1 -74 -3 -74 -3 0 -11 -17 -17 -38 -7 -21 -22 -47 -34 -58 -23 -19 -23
-19 -5 2 26 32 20 41 -9 13 l-27 -24 28 43 c15 23 25 45 22 48 -3 3 -13 -8
-23 -25 -10 -17 -22 -31 -26 -31 -5 0 -18 -12 -31 -26 -25 -29 -77 -60 -77
-45 0 5 7 11 15 15 8 3 15 11 15 17 0 8 -7 6 -18 -4 -21 -19 -57 -23 -46 -6 4
8 -1 9 -17 4 -31 -9 -75 -52 -65 -62 4 -4 17 4 28 20 19 26 57 40 42 15 -5 -8
-2 -9 9 -5 10 3 17 3 17 -2 0 -14 -27 -32 -41 -29 -8 2 -13 -3 -11 -10 1 -7
-4 -23 -13 -35 -12 -18 -15 -19 -15 -4 0 15 -2 15 -20 -3 -23 -23 -37 -25 -42
-8 -3 9 -6 9 -12 0 -4 -7 -2 -12 4 -12 6 0 8 -5 4 -12 -5 -8 -2 -9 9 -5 10 4
17 1 17 -5 0 -6 3 -8 8 -4 4 4 7 13 7 18 0 6 6 13 13 16 9 3 11 -4 6 -25 -8
-34 -32 -63 -52 -63 -9 0 -6 7 9 20 13 10 20 19 14 19 -16 0 -39 -22 -53 -49
-10 -21 -12 -21 -9 -4 4 18 1 20 -26 15 -22 -5 -31 -13 -34 -31 l-3 -24 26 25
27 24 -23 -33 c-20 -26 -26 -30 -33 -17 -4 8 -5 20 -1 27 4 6 3 8 -3 5 -6 -4
-10 -30 -8 -59 2 -50 2 -51 -10 -24 -8 20 -14 25 -18 15 -4 -10 -6 -8 -7 6 -1
11 -2 23 -1 28 0 4 -4 7 -9 7 -6 0 -10 -4 -10 -10 0 -5 -7 -10 -15 -10 -8 0
-15 -7 -15 -15 0 -8 -4 -15 -9 -15 -5 0 -8 -11 -8 -25 0 -13 3 -22 7 -20 5 3
11 -3 13 -12 4 -15 5 -15 6 2 0 12 -4 26 -11 33 -7 7 -9 12 -4 12 21 0 33 -28
27 -63 -6 -37 -7 -37 -23 -18 -9 11 -13 23 -10 27 4 4 -1 4 -10 1 -13 -5 -18
-1 -18 11 0 14 -2 14 -9 3 -9 -14 8 -43 21 -35 4 3 12 -4 18 -15 9 -17 8 -19
-5 -15 -11 5 -15 -1 -15 -18 0 -14 -11 -35 -25 -48 -14 -13 -25 -31 -26 -39 0
-12 -2 -12 -6 -3 -3 7 5 24 18 38 24 26 32 51 19 59 -4 2 -15 -4 -25 -15 -12
-14 -14 -20 -5 -20 10 0 10 -3 0 -15 -7 -8 -16 -13 -20 -10 -4 3 -11 -2 -14
-11 -4 -10 -2 -13 7 -8 9 5 9 4 0 -7 -7 -7 -13 -24 -13 -38 0 -23 1 -23 13 -7
13 17 14 17 28 0 8 -10 9 -15 2 -11 -8 5 -15 -3 -22 -25 -5 -18 -10 -25 -10
-15 -1 9 -8 17 -17 17 -12 0 -14 8 -10 36 4 22 2 33 -4 29 -5 -3 -10 -16 -11
-28 0 -12 -3 -16 -6 -10 -9 24 -36 -15 -29 -43 9 -33 -9 -64 -33 -57 -19 5
-22 18 -8 41 14 22 28 13 22 -15 -5 -24 -4 -25 5 -10 13 20 4 60 -12 51 -6 -4
-8 1 -3 16 6 17 4 21 -6 14 -12 -6 -12 -5 0 9 7 9 9 17 3 17 -9 0 -42 -43 -42
-56 0 -3 7 -1 15 6 12 10 15 10 15 -2 0 -8 -16 -20 -36 -26 l-35 -11 15 24
c23 35 20 37 -19 15 -47 -26 -51 -25 -21 7 31 33 27 40 -12 20 -17 -8 -41 -12
-55 -10 -14 3 -28 0 -32 -6 -4 -8 1 -10 18 -6 24 7 57 -15 57 -37 0 -6 3 -8 7
-5 3 4 13 -2 21 -14 13 -19 15 -20 33 -3 18 16 19 16 13 1 -4 -12 -1 -17 11
-17 9 0 14 -4 10 -9 -3 -5 -1 -12 4 -15 5 -4 12 -2 16 4 10 17 25 1 26 -28 0
-24 1 -25 9 -7 7 17 9 16 10 -10 2 -30 2 -30 10 -5 7 21 8 22 9 5 1 -11 10
-28 21 -38 22 -19 35 -22 25 -7 -3 6 -1 10 4 10 6 0 11 -7 11 -15 0 -8 5 -15
11 -15 5 0 8 4 5 8 -2 4 0 14 5 22 9 13 9 13 7 0 -1 -8 4 -25 12 -37 18 -28
52 -32 44 -5 -3 9 2 6 10 -8 14 -23 15 -23 16 -5 1 18 2 18 11 -3 5 -13 13
-20 19 -17 6 3 13 -1 16 -9 3 -9 12 -16 20 -16 9 0 13 -9 12 -27 -2 -16 2 -29
7 -30 6 -2 10 8 10 21 0 38 15 43 16 5 0 -28 2 -30 9 -14 7 17 9 18 14 4 11
-26 -11 -69 -34 -69 -14 0 -19 -4 -14 -12 4 -7 3 -8 -5 -4 -7 4 -9 17 -6 29 6
20 5 21 -8 5 -20 -25 -25 -22 -20 9 4 22 2 25 -6 13 -9 -12 -11 -11 -11 8 0
13 4 21 9 17 16 -9 24 15 11 30 -17 20 -31 19 -23 -2 4 -10 2 -14 -5 -9 -6 4
-12 -3 -15 -16 -2 -13 -4 -5 -3 17 1 30 -3 40 -17 43 -9 2 -19 -2 -21 -10 -2
-7 -9 -29 -15 -48 l-11 -35 6 37 c4 34 -11 78 -27 78 -11 0 -18 -40 -8 -46 5
-3 9 0 9 7 0 10 3 10 11 2 9 -9 7 -19 -6 -40 -10 -15 -20 -22 -22 -16 -3 8
-14 8 -41 1 -25 -7 -37 -7 -40 0 -2 6 -9 10 -15 8 -7 -1 -9 -1 -4 1 4 3 7 9 7
14 0 6 -6 7 -12 3 -7 -4 -5 2 5 13 28 32 20 36 -16 9 -19 -15 -38 -26 -43 -26
-5 0 -3 4 5 9 7 5 15 19 17 32 2 13 6 42 9 64 l5 40 -20 -33 c-11 -18 -20 -37
-20 -42 0 -12 -44 -24 -62 -17 -7 3 -3 6 10 6 38 2 24 21 -15 21 -37 1 -38 1
-14 14 14 8 30 12 36 10 12 -5 59 35 51 43 -2 2 -14 -5 -26 -17 -11 -11 -25
-18 -30 -15 -5 3 -23 -1 -39 -10 -17 -8 -39 -15 -51 -15 -18 0 -19 3 -10 20 6
11 16 20 22 20 7 0 6 -5 -2 -15 -7 -8 -10 -15 -7 -15 8 0 78 39 95 52 24 20 4
19 -29 -1 -40 -25 -56 -27 -39 -6 17 20 6 19 -28 -2 -26 -17 -27 -17 -12 1 8
10 33 27 55 37 29 13 34 18 19 18 -12 1 -38 -10 -58 -24 -45 -30 -46 -23 -4
16 18 16 28 29 22 29 -6 0 -29 -18 -52 -39 -22 -21 -43 -37 -45 -34 -11 10 8
45 37 68 17 14 25 25 17 25 -7 0 -30 -17 -49 -37 -20 -21 -30 -28 -24 -16 7
12 17 25 22 28 6 3 10 11 10 17 0 21 -40 -25 -49 -56 -6 -21 -9 -25 -10 -11
-1 11 6 30 14 42 14 21 14 23 -4 35 -18 11 -18 13 -4 35 9 13 13 26 10 29 -3
3 -12 -7 -21 -24 -8 -16 -13 -32 -10 -34 2 -3 -3 -11 -13 -19 -14 -12 -16 -12
-8 0 5 8 9 24 10 35 1 12 5 30 9 41 6 16 4 15 -14 -5 -12 -14 -19 -20 -16 -13
3 6 1 13 -6 15 -9 3 -8 11 5 31 23 36 21 48 -3 18 -11 -13 -20 -19 -20 -15 -1
5 -6 -1 -13 -13 -7 -12 -16 -22 -22 -22 -5 0 -13 -10 -17 -23 -5 -21 -6 -20
-7 7 -1 23 7 37 34 58 38 30 39 62 2 48 -12 -4 -34 -6 -49 -5 -19 2 -33 -4
-43 -19 -8 -12 -18 -21 -22 -19 -4 2 -10 -5 -14 -15 -5 -11 -8 -12 -8 -4 -1
10 -4 11 -15 2 -11 -9 -15 -8 -20 5 -4 9 -4 19 -1 22 3 3 5 -1 5 -9 1 -8 8 -2
16 14 8 15 17 27 20 27 3 0 3 -4 0 -9 -4 -5 3 -7 15 -4 11 3 23 12 26 19 3 8
20 14 42 14 73 0 149 42 155 85 2 11 9 21 16 23 9 3 10 0 4 -9 -6 -11 -3 -10
11 1 10 8 21 14 24 13 3 -2 7 2 7 7 1 6 2 14 3 19 0 6 11 8 22 6 12 -3 19 -2
16 2 -4 3 1 19 9 35 9 17 18 28 21 25 2 -3 0 -15 -7 -26 -7 -14 -7 -21 -1 -21
6 0 14 12 17 28 4 15 16 39 26 55 11 15 15 27 9 27 -19 0 -26 -5 -26 -16 0 -7
-11 -23 -25 -36 -14 -13 -31 -33 -38 -44 -12 -18 -13 -18 -9 3 4 16 0 23 -15
25 -20 3 -19 4 3 23 18 15 20 15 10 3 -7 -10 -9 -18 -3 -18 5 0 17 10 26 23 9
12 14 16 10 8 -5 -10 -3 -12 5 -7 7 5 10 11 7 14 -3 3 1 14 11 24 23 26 4 22
-26 -4 -14 -13 -20 -16 -13 -7 6 9 8 20 4 24 -4 5 -2 5 5 2 6 -4 21 5 32 19
18 23 21 24 21 8 1 -17 3 -17 20 4 15 19 17 28 9 43 -7 15 -6 23 6 35 8 8 15
12 15 7 1 -4 7 3 15 17 l15 25 -6 -30 c-8 -38 -1 -31 19 16 14 33 14 37 0 35
-9 -2 -22 -11 -29 -21 -12 -17 -14 -17 -14 -2 0 9 11 24 25 33 14 9 25 20 25
25 0 22 -51 -27 -70 -67 -12 -24 -26 -44 -32 -44 -5 0 0 12 11 26 12 15 21 32
21 39 0 6 20 29 44 51 30 27 48 53 57 84 7 25 27 59 46 77 32 30 44 51 23 38
-6 -4 -7 1 -3 11 5 13 3 15 -8 10 -8 -4 -6 -1 4 7 9 8 17 20 17 28 1 16 30 58
30 43 1 -12 30 27 30 40 0 5 -7 1 -16 -10 -8 -10 -13 -13 -9 -6 3 6 0 12 -7
12 -9 0 -9 3 -2 8 6 4 12 23 13 42 3 52 7 72 20 104 6 16 10 37 9 45 -2 9 -14
-13 -26 -49z m-152 -439 c-5 -11 -15 -23 -22 -27 -7 -5 -8 -2 -3 7 21 37 44
55 25 20z m693 -73 c-24 -11 -40 -24 -37 -29 3 -5 0 -8 -7 -7 -6 2 -14 -3 -17
-11 -3 -9 0 -11 8 -6 10 6 12 4 7 -9 -4 -10 -7 -23 -7 -29 0 -6 -7 -2 -15 9
-15 19 -15 19 -31 -1 -15 -19 -15 -19 -11 8 2 22 15 35 63 62 32 19 66 34 74
34 8 0 -4 -9 -27 -21z m57 -3 c0 -3 -11 -10 -25 -15 -14 -5 -30 -21 -35 -34
-5 -13 -14 -27 -20 -31 -17 -10 7 34 33 63 18 20 47 30 47 17z m-29 -72 c-12
-20 -14 -14 -5 12 4 9 9 14 11 11 3 -2 0 -13 -6 -23z m-165 -12 c-10 -11 -24
-37 -32 -58 -7 -21 -13 -29 -14 -19 0 23 49 110 57 102 4 -3 -2 -15 -11 -25z
m47 -34 c7 3 8 2 4 -3 -5 -5 -14 -9 -20 -9 -7 0 -11 -11 -10 -25 3 -25 3 -25
-9 -3 -8 17 -8 26 3 39 8 10 15 12 17 5 2 -6 9 -8 15 -4z m31 -10 c-3 -8 -12
-18 -20 -21 -11 -4 -11 0 2 20 18 26 28 27 18 1z m67 0 c-10 -9 -11 -8 -5 6 3
10 9 15 12 12 3 -3 0 -11 -7 -18z m-811 5 c0 -5 -7 -17 -15 -28 -14 -18 -14
-17 -4 9 12 27 19 34 19 19z m651 -25 c-10 -9 -11 -8 -5 6 3 10 9 15 12 12 3
-3 0 -11 -7 -18z m-691 -11 c0 -3 -4 -8 -10 -11 -5 -3 -10 -1 -10 4 0 6 5 11
10 11 6 0 10 -2 10 -4z m681 -39 c-10 -9 -11 -8 -5 6 3 10 9 15 12 12 3 -3 0
-11 -7 -18z m-51 -22 c-13 -14 -27 -25 -32 -25 -5 0 3 13 19 29 34 35 46 31
13 -4z m-678 13 c-19 -19 -14 -32 6 -17 9 7 -1 -6 -23 -29 -22 -24 -39 -46
-37 -50 1 -4 -3 -7 -9 -7 -5 0 -19 -11 -30 -25 -16 -20 -18 -20 -10 -4 6 12
26 37 46 57 35 35 46 55 23 41 -14 -9 10 26 27 38 16 12 20 9 7 -4z m609 -71
c-10 -9 -11 -8 -5 6 3 10 9 15 12 12 3 -3 0 -11 -7 -18z m-24 -19 c-3 -8 -6
-5 -6 6 -1 11 2 17 5 13 3 -3 4 -12 1 -19z m-587 8 c0 -2 -8 -10 -17 -17 -16
-13 -17 -12 -4 4 13 16 21 21 21 13z m567 -28 c-3 -7 -5 -2 -5 12 0 14 2 19 5
13 2 -7 2 -19 0 -25z m-574 -18 c-10 -17 -19 -26 -21 -20 -4 10 25 50 35 50 2
0 -4 -14 -14 -30z m504 -2 c-3 -7 -5 -2 -5 12 0 14 2 19 5 13 2 -7 2 -19 0
-25z m20 -10 c-3 -7 -5 -2 -5 12 0 14 2 19 5 13 2 -7 2 -19 0 -25z m-559 3 c2
-7 -2 -11 -11 -9 -8 2 -24 -8 -36 -22 -21 -24 -21 -23 1 12 23 37 38 44 46 19z
m-78 -30 c0 -5 -7 -12 -16 -15 -14 -5 -15 -4 -4 9 14 17 20 19 20 6z m40 -37
c-17 -19 -56 -41 -46 -25 4 6 3 11 -3 11 -5 0 -13 -5 -16 -10 -4 -6 -11 -7
-17 -4 -12 8 11 23 44 29 11 3 23 7 26 10 13 13 23 3 12 -11z m557 -46 c-3 -8
-6 -5 -6 6 -1 11 2 17 5 13 3 -3 4 -12 1 -19z m-731 -3 c-3 -18 -23 -41 -31
-34 -4 5 22 49 30 49 2 0 2 -7 1 -15z m49 5 c-3 -5 -14 -10 -23 -9 -14 0 -13
2 3 9 27 11 27 11 20 0z m648 -45 c-3 -9 -8 -14 -10 -11 -3 3 -2 9 2 15 9 16
15 13 8 -4z m-23 -9 c0 -8 -7 -16 -15 -20 -13 -4 -14 -2 -5 14 13 23 20 26 20
6z m-650 -11 c-17 -21 -1 -19 24 3 20 16 20 16 7 0 -16 -22 1 -24 19 -3 7 8
18 15 24 15 6 0 -2 -11 -19 -24 -16 -13 -36 -21 -44 -18 -7 3 -20 -3 -27 -13
-14 -18 -14 -18 -14 0 0 10 7 27 17 37 19 22 31 24 13 3z m687 -37 c-3 -8 -6
-5 -6 6 -1 11 2 17 5 13 3 -3 4 -12 1 -19z m-730 -10 c-3 -8 -6 -5 -6 6 -1 11
2 17 5 13 3 -3 4 -12 1 -19z m680 -10 c-3 -8 -6 -5 -6 6 -1 11 2 17 5 13 3 -3
4 -12 1 -19z m-537 -20 c0 -6 -3 -8 -7 -5 -3 4 -12 2 -19 -4 -8 -7 -14 -7 -19
1 -3 5 1 10 9 10 9 0 16 5 16 11 0 5 5 7 10 4 6 -3 10 -11 10 -17z m430 -11
c0 -5 -4 -5 -10 -2 -5 3 -10 14 -10 23 0 15 2 15 10 2 5 -8 10 -19 10 -23z
m101 -16 c7 11 9 10 9 -6 0 -10 14 -34 32 -52 18 -18 26 -33 19 -33 -11 0 -11
-3 0 -17 13 -16 12 -17 -3 -5 -9 8 -14 20 -11 28 4 10 0 12 -11 8 -10 -4 -16
-1 -16 9 0 9 -7 20 -15 25 -9 4 -17 24 -19 43 -2 19 -1 23 1 10 4 -19 7 -21
14 -10z m-68 9 c3 -11 1 -20 -4 -20 -5 0 -9 9 -9 20 0 11 2 20 4 20 2 0 6 -9
9 -20z m34 -12 c-3 -7 -5 -2 -5 12 0 14 2 19 5 13 2 -7 2 -19 0 -25z m73 -10
c0 -7 16 -29 36 -49 20 -21 34 -43 31 -51 -3 -8 -8 -4 -15 12 -5 14 -20 34
-32 45 -28 25 -44 55 -30 55 5 0 10 -5 10 -12z m44 -23 l19 -30 -26 24 c-15
13 -24 28 -21 33 3 5 7 8 8 6 1 -2 10 -16 20 -33z m-553 1 c-7 -8 -16 -27 -21
-43 -8 -27 -8 -27 -9 -4 -1 14 6 33 16 43 19 21 31 25 14 4z m379 4 c0 -5 -2
-10 -4 -10 -3 0 -8 5 -11 10 -3 6 -1 10 4 10 6 0 11 -4 11 -10z m-430 -4 c0
-2 -7 -9 -15 -16 -13 -11 -14 -10 -9 4 5 14 24 23 24 12z m522 -36 c5 0 6 -5
2 -11 -7 -12 -34 26 -33 46 0 6 5 0 11 -12 6 -13 15 -23 20 -23z m-52 10 c0
-5 -2 -10 -4 -10 -3 0 -8 5 -11 10 -3 6 -1 10 4 10 6 0 11 -4 11 -10z m-10
-55 c0 -5 -5 -3 -10 5 -8 12 -10 12 -10 1 0 -8 -2 -12 -5 -9 -3 3 -2 13 1 22
5 14 9 15 15 4 5 -7 9 -17 9 -23z m205 5 c13 -26 14 -29 0 -24 -8 4 -15 10
-15 14 0 5 -3 15 -6 24 -11 28 5 17 21 -14z m-845 9 c-38 -25 -47 -28 -47 -14
0 7 7 11 15 7 9 -3 13 -1 9 4 -3 6 4 11 16 11 18 2 19 0 7 -8z m70 0 c0 -5 -4
-7 -10 -4 -5 3 -10 1 -10 -4 0 -6 -7 -11 -15 -11 -8 0 -15 -9 -15 -21 0 -13
-4 -18 -12 -13 -7 4 -10 4 -6 -1 4 -4 3 -14 -3 -21 -7 -8 -7 -14 1 -19 14 -8
30 3 30 21 0 8 4 13 9 10 14 -9 42 5 35 16 -4 6 -10 5 -15 -3 -6 -10 -9 -10
-9 -2 0 7 9 17 19 23 25 13 41 13 21 0 -10 -7 -11 -10 -2 -10 7 0 15 6 18 13
3 9 16 12 34 9 20 -3 30 0 30 9 0 8 9 4 23 -9 13 -12 27 -19 30 -15 4 3 8 -1
8 -10 2 -30 4 -35 12 -44 5 -4 7 -1 5 7 -3 16 29 16 46 -1 6 -5 1 -7 -11 -5
-16 3 -22 -2 -26 -22 -5 -24 -61 -109 -100 -153 -7 -9 -16 -25 -19 -37 -5 -18
-3 -20 11 -13 29 16 45 -2 21 -24 -18 -16 -21 -16 -44 -2 -23 16 -25 16 -23
-2 1 -12 6 -17 16 -13 9 3 12 1 8 -5 -5 -7 2 -10 18 -8 14 1 25 -2 25 -6 0 -5
-7 -9 -16 -9 -9 0 -12 -5 -8 -12 5 -8 2 -8 -10 1 -9 8 -16 10 -15 5 4 -21 -2
-35 -11 -29 -5 3 -10 -2 -10 -12 -1 -17 -1 -17 -15 1 -8 11 -21 16 -30 12 -9
-3 -18 1 -22 9 -4 12 -8 13 -20 4 -9 -8 -17 -9 -24 -2 -6 6 -1 19 17 36 15 15
23 27 18 27 -5 0 -3 4 4 9 7 4 15 17 16 27 2 10 8 18 14 17 5 -1 15 4 22 12
10 12 7 13 -22 5 -18 -6 -35 -10 -37 -10 -2 0 3 -8 10 -17 12 -15 12 -16 -3
-11 -18 7 -33 -16 -21 -34 3 -6 1 -8 -4 -5 -14 9 -47 -29 -38 -42 3 -6 2 -11
-2 -11 -5 0 -14 -9 -20 -19 -12 -18 -11 -19 15 -5 24 12 28 12 40 -3 14 -20
16 -37 2 -28 -12 7 -53 -19 -43 -28 3 -4 1 -7 -6 -7 -7 0 -15 8 -18 18 -3 14
-11 18 -29 14 -13 -2 -24 0 -24 7 0 5 -6 8 -14 5 -25 -10 -7 -30 26 -29 21 0
32 -5 33 -16 2 -14 -10 -17 -76 -18 -67 -2 -78 0 -73 14 5 11 -1 15 -22 15
-27 1 -74 29 -74 45 0 4 6 2 14 -4 11 -9 16 -9 22 0 4 7 2 15 -4 17 -7 2 -12
8 -12 14 0 6 10 3 21 -8 21 -19 22 -19 16 1 -8 26 7 54 16 31 4 -9 14 -16 24
-15 16 0 16 1 -2 9 -14 6 -15 9 -5 10 9 1 5 5 -9 11 -18 7 -26 6 -35 -7 -10
-13 -12 -9 -11 20 1 20 -3 36 -9 36 -8 0 -8 3 0 8 6 4 14 14 17 22 4 8 4 -2 2
-22 -3 -22 -1 -38 5 -38 6 0 10 10 10 22 0 12 8 30 18 41 9 11 11 17 5 13 -7
-4 -13 -2 -13 3 0 6 5 11 11 11 8 0 8 4 0 14 -9 11 -6 12 15 8 18 -3 22 -7 13
-13 -16 -10 -9 -18 19 -24 21 -4 21 -3 6 21 -9 13 -22 24 -29 24 -7 0 -16 8
-20 18 -5 14 -4 15 6 5 19 -19 28 -16 22 7 -3 11 -10 17 -16 13 -6 -3 -7 -1
-3 5 4 7 13 12 21 12 7 0 21 7 30 16 13 14 14 19 3 25 -11 7 -11 9 0 9 7 0 10
5 7 10 -3 6 -1 10 5 10 6 0 8 5 5 10 -3 6 1 10 9 10 9 0 16 -4 16 -10 0 -5 5
-10 10 -10 7 0 7 8 -1 23 -9 18 -9 20 1 10 11 -10 16 -9 27 5 8 9 12 11 8 5
-3 -7 -1 -13 6 -13 6 0 9 -8 6 -20 -3 -12 0 -20 8 -20 7 0 16 16 19 35 4 20
11 33 17 30 5 -4 9 -2 9 4 0 6 10 19 22 31 23 21 68 28 68 9z m634 -54 c7 -29
7 -29 -8 -10 -8 11 -15 31 -15 45 0 30 12 11 23 -35z m-754 13 c0 -5 -4 -8
-10 -8 -5 0 -10 10 -10 23 0 18 2 19 10 7 5 -8 10 -18 10 -22z m-55 13 c3 -5
2 -12 -3 -15 -5 -3 -9 1 -9 9 0 17 3 19 12 6z m860 0 c3 -5 1 -12 -4 -15 -5
-3 -11 1 -15 9 -6 16 9 21 19 6z m-450 -22 c-4 -5 -12 -9 -18 -8 -9 0 -8 2 1
6 6 2 9 10 6 15 -4 7 -2 8 5 4 6 -4 9 -12 6 -17z m550 -15 c9 -15 12 -23 6
-20 -11 7 -35 46 -28 46 3 0 12 -12 22 -26z m-465 -24 c8 -5 11 -10 5 -10 -5
0 -17 5 -25 10 -8 5 -10 10 -5 10 6 0 17 -5 25 -10z m-96 -22 c-3 -4 -1 -8 5
-8 5 0 11 3 14 8 2 4 2 1 0 -6 -2 -8 6 -16 17 -19 11 -3 17 -9 14 -14 -3 -5 0
-9 5 -9 6 0 11 -4 11 -10 0 -5 -7 -7 -15 -4 -8 4 -15 2 -15 -2 0 -5 -10 -20
-21 -34 -11 -14 -18 -19 -14 -12 3 6 1 12 -4 12 -13 0 -13 -3 -5 -24 3 -9 10
-13 15 -10 5 3 6 -2 2 -12 -5 -14 -3 -15 14 -6 23 13 33 7 32 -17 0 -12 -3
-11 -9 4 -8 18 -9 17 -9 -7 -1 -29 -25 -33 -42 -7 -7 11 -9 11 -9 -3 0 -16 11
-23 33 -19 4 0 7 -9 7 -20 0 -18 -2 -19 -15 -9 -8 7 -15 9 -15 5 0 -4 -7 -2
-15 5 -9 8 -13 21 -10 34 5 18 4 19 -7 5 -15 -18 -38 -14 -38 6 0 8 6 18 14
22 7 4 21 23 30 41 9 17 21 32 26 32 6 0 10 9 10 21 0 13 4 18 12 13 7 -5 8
-3 3 6 -6 10 -11 9 -21 -6 -8 -10 -22 -30 -31 -43 -10 -13 -17 -28 -15 -33 1
-4 -3 -8 -8 -8 -6 0 -15 -11 -21 -24 -7 -15 -19 -24 -30 -23 -25 2 -24 19 4
54 32 39 82 117 80 124 -1 3 4 6 12 6 8 0 12 -4 9 -9z m76 -2 c0 -3 -4 -8 -10
-11 -5 -3 -10 -1 -10 4 0 6 5 11 10 11 6 0 10 -2 10 -4z m97 -22 c-3 -3 -12
-4 -19 -1 -8 3 -5 6 6 6 11 1 17 -2 13 -5z m-69 -26 c-2 -7 4 -12 12 -10 10 1
9 -3 -5 -14 -18 -15 -18 -16 -2 -10 11 3 28 -1 40 -10 14 -11 16 -14 5 -11
-19 7 -43 -17 -33 -33 3 -5 1 -10 -4 -10 -6 0 -11 5 -11 11 0 8 -6 7 -17 -2
-10 -8 -14 -9 -10 -2 4 6 3 14 -3 18 -5 3 -10 0 -10 -7 0 -10 -3 -9 -9 2 -12
17 -4 33 11 24 7 -4 8 -2 4 4 -4 6 1 23 10 37 18 27 25 32 22 13z m342 -7 c0
-16 -24 -51 -34 -51 -2 0 2 16 8 35 12 38 26 47 26 16z m-399 -39 c-6 -11 -7
-22 -4 -26 3 -3 1 -6 -5 -6 -16 0 -15 33 0 48 16 16 22 8 9 -16z m41 -101 c8
12 9 12 6 0 -2 -8 -12 -15 -22 -17 -24 -3 -34 -16 -18 -21 6 -3 12 -9 12 -15
0 -6 -6 -6 -15 2 -8 7 -15 19 -15 26 0 8 7 14 15 14 8 0 16 8 16 18 1 15 2 14
6 -2 4 -15 7 -16 15 -5z m-152 -53 c0 -11 23 -6 32 7 4 6 8 -3 8 -19 0 -28 1
-29 15 -10 9 12 14 14 15 6 0 -7 5 -10 12 -6 7 4 8 3 4 -5 -4 -6 -13 -8 -19
-4 -7 4 -6 -1 2 -10 22 -27 8 -29 -43 -7 -25 12 -50 19 -55 16 -13 -9 -20 58
-7 66 10 7 36 -17 36 -34z m397 6 c0 -7 -7 -9 -15 -6 -11 4 -14 1 -9 -11 4
-11 2 -14 -8 -11 -9 4 -14 35 -6 39 11 6 38 -2 38 -11z m87 -3 c3 -4 -11 -5
-30 -3 -18 2 -32 8 -29 12 5 8 53 1 59 -9z m51 -21 c8 7 15 7 19 1 7 -11 -31
-41 -51 -41 -7 0 -13 -5 -13 -11 0 -6 -7 -3 -16 6 -9 8 -13 22 -10 30 6 17 26
20 26 4 0 -5 -5 -7 -12 -3 -7 4 -8 3 -4 -5 10 -15 35 4 37 28 1 13 2 13 6 -2
4 -14 8 -15 18 -7z m-596 -42 c11 -11 12 -10 6 2 -4 8 2 5 15 -6 23 -22 20
-44 -6 -44 -8 0 -14 8 -14 18 0 14 -2 15 -10 2 -8 -13 -11 -12 -25 5 -9 11
-14 14 -10 8 3 -7 1 -13 -4 -13 -14 0 -14 13 1 28 15 15 31 15 47 0z m490 -14
c4 3 8 -1 8 -9 0 -15 -18 -16 -29 -1 -3 5 -3 16 0 25 6 14 7 14 10 -2 2 -9 7
-15 11 -13z m41 -4 c0 -5 -5 -10 -11 -10 -5 0 -7 5 -4 10 3 6 8 10 11 10 2 0
4 -4 4 -10z m-668 -43 c-7 -8 -8 -18 -4 -22 4 -5 1 -5 -5 -1 -7 4 -13 14 -13
22 0 8 5 12 10 9 6 -3 10 -1 10 6 0 7 3 9 6 6 4 -4 2 -13 -4 -20z m18 -14
c-11 -17 -11 -17 -6 0 3 10 6 24 7 30 0 9 2 9 5 0 3 -7 0 -20 -6 -30z m-331 1
c10 -9 -45 -3 -59 6 -11 7 -5 8 20 4 19 -4 37 -8 39 -10z"/>
<path d="M544 685 c-14 -11 -15 -14 -4 -15 12 0 12 -2 2 -9 -8 -4 -13 -11 -13
-15 3 -21 -1 -27 -13 -23 -10 4 -13 1 -9 -8 3 -9 -4 -18 -18 -24 -24 -10 -24
-10 4 -10 16 -1 26 4 25 12 -2 6 3 11 10 10 6 -2 12 0 11 5 -3 21 16 51 38 61
14 7 23 15 19 18 -3 4 -12 1 -18 -5 -17 -17 -33 -15 -18 3 16 19 9 19 -16 0z"/>
<path d="M686 553 c-6 -14 -5 -15 5 -6 7 7 10 15 7 18 -3 3 -9 -2 -12 -12z"/>
<path d="M664 505 c-4 -8 -11 -12 -18 -8 -6 3 -8 3 -4 -2 4 -4 -2 -24 -14 -44
l-22 -36 31 32 c17 18 33 42 36 53 6 23 -1 27 -9 5z"/>
<path d="M625 409 c-4 -6 -5 -12 -2 -15 2 -3 7 2 10 11 7 17 1 20 -8 4z"/>
<path d="M330 366 c0 -2 8 -10 18 -17 15 -13 16 -12 3 4 -13 16 -21 21 -21 13z"/>
<path d="M853 545 c0 -8 4 -15 9 -15 4 0 8 4 8 9 0 6 -4 12 -8 15 -5 3 -9 -1
-9 -9z"/>
<path d="M760 350 c0 -5 5 -10 11 -10 5 0 7 5 4 10 -3 6 -8 10 -11 10 -2 0 -4
-4 -4 -10z"/>
<path d="M1947 2083 c-4 -3 -7 -11 -7 -17 0 -6 5 -5 12 2 6 6 9 14 7 17 -3 3
-9 2 -12 -2z"/>
<path d="M1916 2033 c-6 -14 -5 -15 5 -6 7 7 10 15 7 18 -3 3 -9 -2 -12 -12z"/>
<path d="M1947 2033 c-4 -3 -7 -11 -7 -17 0 -6 5 -5 12 2 6 6 9 14 7 17 -3 3
-9 2 -12 -2z"/>
<path d="M2008 1986 c-16 -24 -28 -53 -28 -65 0 -12 -7 -24 -16 -28 -8 -3 -13
-12 -10 -19 3 -8 -1 -28 -9 -46 -11 -25 -14 -28 -15 -13 l-1 20 -9 -20 c-5
-11 -8 -38 -8 -60 l1 -40 7 40 7 40 3 -35 2 -35 8 35 c4 19 17 60 29 90 11 30
21 64 21 74 0 11 3 16 7 13 9 -10 29 23 38 61 3 17 5 32 3 32 -2 0 -15 -20
-30 -44z"/>
<path d="M1908 1945 c-3 -13 -1 -22 3 -19 5 3 9 13 9 22 0 13 2 14 9 3 5 -8
11 -9 15 -3 3 5 -1 13 -10 16 -22 8 -21 9 -26 -19z"/>
<path d="M1916 1891 c-4 -6 -3 -11 3 -11 6 0 8 -8 4 -17 -5 -14 -3 -15 7 -6 8
7 9 16 2 28 -6 12 -11 14 -16 6z"/>
<path d="M1200 1814 c0 -7 -3 -21 -6 -31 -5 -17 -5 -17 9 -1 8 10 16 15 19 12
3 -2 8 4 11 15 3 15 0 19 -14 18 -11 -1 -19 -7 -19 -13z"/>
<path d="M1870 1815 c0 -8 2 -15 4 -15 2 0 6 7 10 15 3 8 1 15 -4 15 -6 0 -10
-7 -10 -15z"/>
<path d="M1838 1788 c-4 -10 -1 -19 8 -22 21 -8 24 -8 24 5 0 5 -4 8 -9 4 -5
-3 -11 3 -13 12 -3 16 -4 17 -10 1z"/>
<path d="M1821 1724 c0 -11 3 -14 6 -6 3 7 2 16 -1 19 -3 4 -6 -2 -5 -13z"/>
<path d="M1851 1723 c0 -6 -4 -20 -7 -30 -5 -14 -4 -15 5 -7 7 7 11 20 8 30
-3 11 -5 14 -6 7z"/>
<path d="M1142 1687 c-9 -11 -26 -60 -27 -79 0 -4 -8 -16 -17 -27 -10 -11 -14
-23 -9 -25 7 -5 51 46 51 59 0 4 7 13 15 21 21 21 19 40 -2 23 -17 -13 -17
-12 0 14 17 27 9 38 -11 14z"/>
<path d="M1867 1694 c-4 -4 -7 -19 -6 -33 l0 -26 10 24 c10 26 8 47 -4 35z"/>
<path d="M1812 1660 c-7 -18 -20 -43 -30 -53 -12 -15 -13 -19 -3 -15 18 5 54
73 49 90 -3 7 -10 -3 -16 -22z"/>
<path d="M1745 1659 c-4 -6 -5 -12 -2 -15 2 -3 7 2 10 11 7 17 1 20 -8 4z"/>
<path d="M1776 1651 c-12 -13 -14 -21 -6 -26 14 -8 15 -7 24 23 9 27 4 28 -18
3z"/>
<path d="M1710 1619 c0 -5 5 -7 10 -4 6 3 10 8 10 11 0 2 -4 4 -10 4 -5 0 -10
-5 -10 -11z"/>
<path d="M1720 1585 c-7 -8 -8 -15 -2 -15 5 0 15 7 22 15 7 8 8 15 2 15 -5 0
-15 -7 -22 -15z"/>
<path d="M1597 1583 c-4 -3 -7 -11 -7 -17 0 -6 5 -5 12 2 6 6 9 14 7 17 -3 3
-9 2 -12 -2z"/>
<path d="M1655 1581 c-3 -6 4 -9 15 -8 11 1 20 5 20 9 0 11 -28 10 -35 -1z"/>
<path d="M1740 1565 c-7 -9 -11 -18 -8 -20 3 -3 11 1 18 10 7 9 11 18 8 20 -3
3 -11 -1 -18 -10z"/>
<path d="M1396 1525 c-9 -14 -12 -25 -7 -25 12 0 35 39 28 46 -2 3 -12 -7 -21
-21z"/>
<path d="M1475 1529 c-11 -17 1 -21 15 -4 8 9 8 15 2 15 -6 0 -14 -5 -17 -11z"/>
<path d="M1548 1529 c-10 -5 -18 -15 -18 -21 0 -7 4 -7 13 0 6 6 16 10 22 10
5 0 11 5 13 11 5 14 -8 14 -30 0z"/>
<path d="M1427 1473 c-13 -16 -13 -20 0 -32 8 -7 12 -20 8 -28 -5 -13 -3 -14
10 -3 9 7 12 16 8 19 -13 10 -13 45 0 53 8 5 8 8 1 8 -6 0 -18 -8 -27 -17z"/>
<path d="M1367 1473 c-4 -3 -7 -11 -7 -17 0 -6 5 -5 12 2 6 6 9 14 7 17 -3 3
-9 2 -12 -2z"/>
<path d="M1475 1469 c-11 -17 1 -21 15 -4 8 9 8 15 2 15 -6 0 -14 -5 -17 -11z"/>
<path d="M1520 1460 c-8 -5 -12 -12 -9 -15 4 -3 12 1 19 10 14 17 11 19 -10 5z"/>
<path d="M1475 1420 c-3 -5 -1 -10 4 -10 6 0 11 5 11 10 0 6 -2 10 -4 10 -3 0
-8 -4 -11 -10z"/>
<path d="M1450 1375 c-20 -24 -6 -28 15 -5 10 11 13 20 8 20 -6 0 -16 -7 -23
-15z"/>
<path d="M1474 1366 c-10 -8 -17 -17 -14 -19 3 -3 14 1 24 9 11 7 17 16 15 19
-3 3 -14 -2 -25 -9z"/>
<path d="M1380 1359 c0 -5 5 -7 10 -4 6 3 10 8 10 11 0 2 -4 4 -10 4 -5 0 -10
-5 -10 -11z"/>
<path d="M1417 1343 c-4 -3 -7 -11 -7 -17 0 -6 5 -5 12 2 6 6 9 14 7 17 -3 3
-9 2 -12 -2z"/>
<path d="M1336 1324 c-5 -14 -4 -15 9 -4 17 14 19 20 6 20 -5 0 -12 -7 -15
-16z"/>
<path d="M1380 1329 c0 -5 5 -7 10 -4 6 3 10 8 10 11 0 2 -4 4 -10 4 -5 0 -10
-5 -10 -11z"/>
<path d="M1350 1301 c0 -10 26 -9 36 2 4 4 -2 7 -14 7 -12 0 -22 -4 -22 -9z"/>
<path d="M1280 1229 c0 -5 5 -7 10 -4 6 3 10 8 10 11 0 2 -4 4 -10 4 -5 0 -10
-5 -10 -11z"/>
<path d="M903 1161 c-11 -17 -10 -18 14 -12 15 4 29 14 31 22 5 12 2 12 -13
-1 -11 -9 -16 -10 -11 -2 4 6 3 12 -1 12 -5 0 -14 -9 -20 -19z"/>
<path d="M1251 1141 c-7 -5 -11 -13 -8 -19 4 -5 -2 -17 -13 -27 -11 -10 -20
-23 -20 -28 0 -5 12 2 27 17 14 14 23 29 20 33 -4 3 -2 12 4 20 13 15 10 16
-10 4z"/>
<path d="M851 1122 c-7 -13 -16 -20 -20 -18 -4 3 -19 -6 -31 -19 -13 -14 -29
-25 -37 -25 -7 0 -13 -4 -13 -10 0 -14 39 -32 56 -26 9 3 14 -1 14 -12 0 -10
3 -13 8 -7 15 21 34 16 28 -7 -3 -13 -3 -17 0 -10 8 18 24 4 17 -15 -4 -11 -3
-14 6 -9 7 5 10 14 7 21 -7 20 6 27 19 9 10 -14 15 -13 43 11 18 15 32 32 32
38 0 7 -11 -1 -25 -16 -28 -29 -48 -36 -39 -13 7 19 -24 15 -37 -5 -5 -8 -9
-9 -9 -4 1 18 28 47 32 34 2 -7 15 -2 33 15 15 14 26 29 23 32 -3 3 -15 -4
-26 -16 -11 -12 -25 -19 -31 -16 -5 4 -12 2 -15 -3 -4 -5 -14 -8 -24 -6 -9 2
-21 4 -26 4 -6 1 -1 7 10 15 14 11 21 11 27 3 6 -7 6 -5 3 7 -4 11 -2 22 4 26
6 4 5 13 -4 25 -13 18 -14 18 -25 -3z m6 -24 c-8 -13 -20 -22 -26 -20 -10 2
-15 -11 -13 -30 1 -3 -5 -9 -13 -12 -10 -3 -12 0 -8 12 9 26 24 42 34 37 4 -3
13 4 19 15 6 11 13 20 17 20 3 0 -1 -10 -10 -22z"/>
<path d="M894 1099 c0 -16 5 -28 11 -26 15 5 14 45 0 51 -8 3 -12 -5 -11 -25z"/>
<path d="M985 1080 c-3 -5 -1 -10 4 -10 6 0 11 5 11 10 0 6 -2 10 -4 10 -3 0
-8 -4 -11 -10z"/>
<path d="M1145 1070 c-3 -5 -2 -10 4 -10 5 0 13 5 16 10 3 6 2 10 -4 10 -5 0
-13 -4 -16 -10z"/>
<path d="M1148 1025 c-20 -26 -26 -67 -7 -48 6 6 11 17 13 26 1 8 8 22 15 31
7 9 10 16 5 16 -5 0 -17 -11 -26 -25z"/>
<path d="M1191 1034 c0 -11 3 -14 6 -6 3 7 2 16 -1 19 -3 4 -6 -2 -5 -13z"/>
<path d="M1105 1020 c-3 -5 -1 -10 4 -10 6 0 11 5 11 10 0 6 -2 10 -4 10 -3 0
-8 -4 -11 -10z"/>
<path d="M1061 994 c-9 -20 -9 -25 0 -22 14 5 32 48 20 48 -4 0 -13 -12 -20
-26z"/>
<path d="M969 983 c-13 -15 -12 -15 9 -4 23 12 28 21 13 21 -5 0 -15 -7 -22
-17z"/>
<path d="M840 895 c-7 -8 -8 -15 -2 -15 5 0 15 7 22 15 7 8 8 15 2 15 -5 0
-15 -7 -22 -15z"/>
<path d="M1101 834 c0 -11 3 -14 6 -6 3 7 2 16 -1 19 -3 4 -6 -2 -5 -13z"/>
<path d="M1126 735 c-3 -8 -1 -15 3 -15 5 0 11 7 15 15 3 8 1 15 -3 15 -5 0
-11 -7 -15 -15z"/>
<path d="M1161 734 c0 -11 3 -14 6 -6 3 7 2 16 -1 19 -3 4 -6 -2 -5 -13z"/>
<path d="M1179 683 c-32 -52 -35 -60 -15 -44 20 16 50 71 43 77 -2 3 -15 -12
-28 -33z"/>
<path d="M1197 654 c-10 -13 -14 -24 -9 -24 13 0 35 27 30 39 -1 5 -11 -2 -21
-15z"/>
</g>
</svg>
